<?xml version="1.0" encoding="UTF-8" standalone="no"?> <svg width="64" height="64" viewBox="0 0 64 64" fill="none" xmlns="http://www.w3.org/2000/svg">
<path d="M48.2302 59.7203C47.6546 59.7148 47.0952 59.5295 46.6302 59.1903L32.4302 48.8703C32.3059 48.7778 32.1551 48.7278 32.0002 48.7278C31.8453 48.7278 31.6945 48.7778 31.5702 48.8703L17.3702 59.1903C16.9032 59.5302 16.3405 59.7132 15.763 59.7131C15.1854 59.713 14.6228 59.5297 14.156 59.1896C13.6892 58.8495 13.3423 58.3701 13.1651 57.8204C12.988 57.2707 12.9898 56.6789 13.1702 56.1303L18.5902 39.4403C18.6393 39.2937 18.6405 39.1353 18.5938 38.9879C18.5471 38.8405 18.4548 38.7118 18.3302 38.6203L4.13018 28.3103C3.6635 27.9718 3.31594 27.4943 3.1373 26.9462C2.95867 26.3981 2.95813 25.8075 3.13576 25.2591C3.31339 24.7107 3.66008 24.2325 4.12613 23.8932C4.59219 23.5539 5.1537 23.3709 5.73018 23.3703H23.2902C23.4431 23.3697 23.5919 23.3211 23.7157 23.2314C23.8395 23.1417 23.932 23.0154 23.9802 22.8703L29.4002 6.17028C29.5818 5.62428 29.9306 5.14929 30.3973 4.81268C30.864 4.47607 31.4248 4.29492 32.0002 4.29492C32.5756 4.29492 33.1364 4.47607 33.6031 4.81268C34.0697 5.14929 34.4186 5.62428 34.6002 6.17028L40.0002 22.8703C40.0484 23.0154 40.1409 23.1417 40.2647 23.2314C40.3885 23.3211 40.5373 23.3697 40.6902 23.3703H58.2702C58.8467 23.3709 59.4082 23.5539 59.8742 23.8932C60.3403 24.2325 60.687 24.7107 60.8646 25.2591C61.0422 25.8075 61.0417 26.3981 60.8631 26.9462C60.6844 27.4943 60.3369 27.9718 59.8702 28.3103L45.6702 38.6203C45.5456 38.7118 45.4533 38.8405 45.4066 38.9879C45.3598 39.1353 45.3611 39.2937 45.4102 39.4403L50.8302 56.1303C51.0125 56.6802 51.0138 57.2741 50.8338 57.8249C50.6538 58.3756 50.3021 58.8541 49.8302 59.1903C49.3649 59.5289 48.8056 59.7141 48.2302 59.7203V59.7203ZM32.0002 46.7303C32.5753 46.7288 33.1358 46.911 33.6002 47.2503L47.8102 57.5703C47.9322 57.6635 48.0816 57.7141 48.2352 57.7141C48.3888 57.7141 48.5381 57.6635 48.6602 57.5703C48.7878 57.4811 48.883 57.3531 48.9317 57.2052C48.9804 57.0574 48.9799 56.8978 48.9302 56.7503L43.5002 40.0603C43.3234 39.5114 43.325 38.9207 43.5046 38.3728C43.6842 37.8249 44.0328 37.3479 44.5002 37.0103L58.7002 26.6903C58.8247 26.5995 58.9173 26.4717 58.9648 26.3251C59.0123 26.1785 59.0121 26.0207 58.9644 25.8742C58.9167 25.7277 58.8238 25.6 58.6991 25.5095C58.5744 25.419 58.4243 25.3703 58.2702 25.3703H40.7102C40.1339 25.3702 39.5726 25.1872 39.1071 24.8475C38.6416 24.5078 38.296 24.029 38.1202 23.4803L32.6902 6.79028C32.6406 6.64674 32.5475 6.52223 32.4238 6.4341C32.3001 6.34597 32.152 6.29861 32.0002 6.29861C31.8483 6.29861 31.7002 6.34597 31.5766 6.4341C31.4529 6.52223 31.3598 6.64674 31.3102 6.79028L25.8802 23.4803C25.7043 24.029 25.3588 24.5078 24.8933 24.8475C24.4278 25.1872 23.8664 25.3702 23.2902 25.3703H5.73018C5.5761 25.3703 5.42596 25.419 5.30126 25.5095C5.17656 25.6 5.08369 25.7277 5.03597 25.8742C4.98824 26.0207 4.9881 26.1785 5.03556 26.3251C5.08302 26.4717 5.17565 26.5995 5.30018 26.6903L19.5102 37.0003C19.9764 37.3389 20.324 37.816 20.5035 38.3635C20.6831 38.9111 20.6854 39.5013 20.5102 40.0503L15.0702 56.7503C15.0222 56.8967 15.0217 57.0545 15.0689 57.2011C15.116 57.3477 15.2083 57.4757 15.3326 57.5667C15.4569 57.6577 15.6068 57.7071 15.7608 57.7077C15.9149 57.7083 16.0651 57.6602 16.1902 57.5703L30.4002 47.2503C30.8645 46.911 31.4251 46.7288 32.0002 46.7303V46.7303Z" fill="url(#paint0_linear_133:12719)"/>
<defs>
<linearGradient id="paint0_linear_133:12719" x1="3.00018" y1="32.0003" x2="61.0002" y2="32.0003" gradientUnits="userSpaceOnUse">
<stop stop-color="#19DD33"/>
<stop offset="0.43" stop-color="#0FA922"/>
<stop offset="0.8" stop-color="#088215"/>
<stop offset="1" stop-color="#057310"/>
</linearGradient>
</defs>
</svg>
